<?xml version="1.0" standalone="no"?>
<!DOCTYPE svg PUBLIC "-//W3C//DTD SVG 20010904//EN"
 "http://www.w3.org/TR/2001/REC-SVG-20010904/DTD/svg10.dtd">
<svg version="1.0" xmlns="http://www.w3.org/2000/svg"
 width="350.000000pt" height="350.000000pt" viewBox="0 0 350.000000 350.000000"
 preserveAspectRatio="xMidYMid meet">

<g transform="translate(0.000000,350.000000) scale(0.100000,-0.100000)"
fill="#000000" stroke="none">
<path d="M1555 3290 c3 -5 15 -10 26 -10 10 0 19 5 19 10 0 6 -12 10 -26 10
-14 0 -23 -4 -19 -10z"/>
<path d="M1810 3279 c-25 -6 -52 -18 -62 -26 -10 -9 -18 -10 -22 -4 -3 5 -20
13 -37 16 -25 6 -36 2 -59 -20 -23 -22 -42 -29 -99 -35 -93 -10 -105 -20 -98
-85 7 -65 -22 -105 -78 -105 -31 0 -35 -3 -35 -26 0 -14 -4 -34 -10 -44 -8
-16 -5 -19 23 -26 27 -6 29 -8 12 -14 -19 -7 -19 -7 2 -25 l22 -18 -37 -20
c-48 -25 -45 -22 -48 -60 -1 -17 -7 -71 -13 -118 -7 -59 -8 -103 -1 -139 18
-95 14 -115 -22 -125 -42 -13 -47 -44 -18 -123 22 -61 78 -132 104 -132 37 0
64 -23 70 -59 4 -20 16 -57 28 -83 18 -40 19 -52 9 -71 -13 -24 -9 -193 5
-206 4 -3 4 0 -1 8 -6 11 -2 12 21 7 16 -4 80 -11 142 -16 107 -7 146 -19 128
-37 -4 -5 -57 -10 -117 -13 -101 -5 -111 -3 -123 15 -13 19 -14 18 -30 -12 -9
-18 -16 -43 -16 -57 0 -14 -4 -27 -9 -31 -10 -6 -16 8 -26 69 -3 21 -9 35 -12
32 -16 -16 -33 -86 -33 -137 0 -46 5 -61 25 -83 13 -14 29 -26 35 -26 7 0 10
-35 10 -97 0 -54 1 -109 3 -123 2 -20 -3 -26 -23 -28 -14 -2 -29 -7 -35 -11
-5 -4 -25 -8 -42 -10 -28 -2 -33 1 -33 18 0 28 -28 27 -32 -1 -2 -12 -9 -23
-17 -26 -11 -4 -12 30 -7 204 4 128 3 214 -3 223 -13 20 -128 8 -180 -19 -22
-11 -47 -20 -55 -20 -8 0 -16 -4 -18 -9 -1 -5 -30 -23 -63 -40 -33 -17 -67
-35 -75 -40 -8 -5 -37 -19 -65 -32 -27 -13 -57 -28 -65 -34 -8 -7 -37 -18 -63
-25 -27 -7 -55 -19 -62 -26 -7 -7 -25 -15 -40 -18 -52 -10 -71 -37 -91 -135
-33 -154 -40 -272 -23 -379 9 -61 10 -94 2 -129 l-11 -47 86 -89 c237 -243
527 -404 857 -477 299 -65 638 -45 928 57 369 128 695 389 898 719 36 59 42
76 40 118 -1 26 3 91 9 142 10 83 9 101 -6 147 -37 113 -79 164 -151 187 -21
7 -54 20 -73 30 -82 41 -275 104 -525 170 -135 35 -184 58 -268 124 -45 35
-91 73 -102 84 -11 11 -37 23 -58 27 -22 4 -37 13 -37 21 0 20 -13 17 -30 -6
-8 -11 -18 -20 -23 -20 -14 0 -38 -28 -27 -32 15 -5 -22 -75 -45 -86 -26 -12
-82 -4 -89 13 -2 7 15 27 40 44 41 30 44 36 44 77 0 31 4 44 14 44 8 0 16 6
19 13 3 9 16 12 36 9 19 -2 31 0 31 7 0 6 5 11 11 11 22 0 43 34 46 74 1 22 5
64 8 92 4 47 2 55 -31 97 -34 44 -37 45 -103 52 l-68 7 0 123 -1 124 24 -29
c13 -15 24 -32 24 -38 0 -16 77 -92 93 -92 8 0 17 -5 19 -12 6 -17 28 0 28 23
0 11 7 19 16 19 9 0 36 10 60 21 53 27 74 20 74 -23 1 -40 20 -68 47 -68 16 0
19 -5 15 -25 -3 -18 0 -25 12 -25 22 0 22 62 0 96 -19 28 -13 107 10 133 37
43 44 75 49 256 5 192 -2 239 -44 278 -12 11 -27 35 -35 53 -9 21 -27 39 -50
50 -20 9 -39 24 -42 33 -13 33 -65 66 -116 73 -108 14 -203 17 -246 7z m330
-422 c35 -51 40 -71 40 -177 l0 -109 -67 20 c-38 10 -77 19 -89 19 -11 0 -35
11 -52 24 -26 19 -29 25 -17 30 12 4 13 11 7 23 -14 26 -25 102 -13 84 8 -12
11 -9 17 12 3 16 4 30 2 32 -2 3 -24 -1 -49 -9 -28 -9 -36 -14 -21 -15 33 -2
27 -21 -8 -21 -21 0 -30 5 -30 16 0 8 -4 13 -9 10 -11 -7 -24 41 -16 54 4 6
16 10 29 10 12 0 26 4 32 10 10 10 161 19 204 12 13 -2 31 -13 40 -25z m-290
-197 c0 -15 -7 -20 -29 -20 -40 0 -48 16 -14 28 40 15 43 14 43 -8z m-442
-265 c9 -19 9 -45 2 -97 -6 -40 -13 -74 -15 -76 -18 -18 -75 115 -75 175 0 20
5 23 38 23 32 0 41 -5 50 -25z m563 -177 c7 -13 16 -40 19 -60 7 -34 5 -38
-14 -38 -11 1 -37 9 -56 20 -19 10 -46 24 -59 30 l-25 11 21 21 c12 11 39 24
60 28 21 4 39 8 40 9 1 0 8 -9 14 -21z m-483 -319 c-6 -17 -22 -12 -30 10 -7
19 -5 20 13 11 11 -6 19 -16 17 -21z m640 -149 c23 -71 31 -195 18 -271 -8
-45 -8 -47 24 -63 18 -9 39 -16 45 -16 7 0 20 -11 29 -25 15 -23 15 -26 1 -32
-9 -3 -21 -1 -28 6 -6 6 -21 11 -34 11 -16 0 -27 8 -33 25 -5 14 -14 25 -19
25 -15 0 -41 -42 -41 -66 0 -12 -7 -27 -15 -34 -8 -7 -15 -18 -15 -24 0 -7
-13 -30 -30 -52 -16 -21 -30 -45 -30 -51 0 -17 -37 -39 -78 -48 -24 -5 -50 1
-105 23 -58 24 -94 31 -181 37 -59 3 -116 9 -125 13 -22 9 46 23 132 27 79 4
127 20 127 44 0 9 19 27 41 41 77 47 238 246 259 320 15 53 13 59 -20 55 -37
-5 -45 7 -26 42 8 16 15 22 16 16 0 -7 5 -13 11 -13 7 0 5 10 -5 25 -9 13 -16
28 -16 32 0 4 5 0 11 -9 16 -28 39 -10 39 30 0 34 1 35 14 17 7 -11 23 -49 34
-85z m292 -215 c0 -8 -6 -15 -14 -15 -17 0 -28 14 -19 24 12 12 33 6 33 -9z
m-78 -204 c13 -4 32 -5 43 -1 29 11 55 -16 55 -58 0 -34 -1 -34 -32 -28 -37 7
-135 96 -106 96 9 0 27 -4 40 -9z m-194 -107 c6 -7 12 -21 12 -31 0 -16 -2
-16 -18 3 -9 12 -25 24 -35 27 -10 4 -16 11 -12 16 6 11 34 3 53 -15z m103
-13 c11 -24 21 -31 56 -36 24 -3 46 -4 51 -1 12 7 57 -63 46 -74 -13 -12 -77
12 -135 52 -39 26 -49 39 -49 61 0 35 15 35 31 -2z m-46 -21 c3 -5 -1 -10 -9
-10 -9 0 -16 5 -16 10 0 6 4 10 9 10 6 0 13 -4 16 -10z m-577 -72 c18 -20 21
-38 25 -144 3 -87 1 -125 -8 -138 -10 -13 -10 -24 -2 -46 10 -27 8 -32 -20
-60 -31 -30 -32 -31 -43 -11 -14 27 -34 27 -48 -1 l-12 -23 1 25 c1 14 0 30
-1 35 -7 31 -4 275 4 278 5 2 3 14 -4 27 -11 21 -11 26 5 35 10 5 25 18 34 28
21 23 43 22 69 -5z m939 -80 c-3 -8 -6 -5 -6 6 -1 11 2 17 5 13 3 -3 4 -12 1
-19z m-132 -118 c3 -5 1 -10 -4 -10 -6 0 -11 5 -11 10 0 6 2 10 4 10 3 0 8 -4
11 -10z"/>
<path d="M1565 890 c-7 -12 2 -30 16 -30 12 0 12 27 0 35 -5 3 -12 1 -16 -5z"/>
<path d="M1225 2959 c-4 -12 -2 -26 4 -32 8 -8 11 -7 11 5 0 9 3 23 6 32 3 9
1 16 -4 16 -6 0 -14 -9 -17 -21z"/>
<path d="M2211 2286 c-10 -12 -10 -21 0 -46 17 -37 36 -39 45 -3 11 43 -21 78
-45 49z"/>
<path d="M1361 1294 c0 -11 3 -14 6 -6 3 7 2 16 -1 19 -3 4 -6 -2 -5 -13z"/>
<path d="M1330 1243 c0 -18 5 -33 10 -33 13 0 13 30 0 50 -7 11 -10 7 -10 -17z"/>
</g>
</svg>
